<?xml version="1.0" standalone="no"?>
<!DOCTYPE svg PUBLIC "-//W3C//DTD SVG 20010904//EN"
 "http://www.w3.org/TR/2001/REC-SVG-20010904/DTD/svg10.dtd">
<svg version="1.0" xmlns="http://www.w3.org/2000/svg"
 width="63.000000pt" height="63.000000pt" viewBox="0 0 63.000000 63.000000"
 preserveAspectRatio="xMidYMid meet">

<g transform="translate(0.000000,63.000000) scale(0.100000,-0.100000)"
fill="#000000" stroke="none">
<path d="M204 551 c-94 -44 -154 -134 -154 -233 0 -56 50 -158 95 -195 44 -37
117 -63 175 -63 58 0 159 49 198 95 37 45 62 113 62 167 0 56 -50 158 -95 195
-81 67 -183 79 -281 34z m234 -45 c23 -14 54 -45 69 -69 24 -36 28 -52 28
-117 0 -65 -4 -81 -28 -117 -15 -24 -46 -55 -70 -70 -37 -25 -52 -28 -122 -28
-70 0 -85 3 -122 28 -24 15 -55 46 -70 70 -24 36 -28 52 -28 117 0 65 4 81 28
117 26 41 82 85 123 96 10 3 48 5 84 3 50 -2 75 -9 108 -30z"/>
<path d="M350 345 c-59 -60 -77 -66 -105 -35 -21 23 -45 26 -45 7 0 -18 62
-77 81 -77 17 0 149 130 149 148 0 25 -27 10 -80 -43z"/>
</g>
</svg>
