<?xml version="1.0" standalone="no"?>
<!DOCTYPE svg PUBLIC "-//W3C//DTD SVG 20010904//EN"
 "http://www.w3.org/TR/2001/REC-SVG-20010904/DTD/svg10.dtd">
<svg version="1.0" xmlns="http://www.w3.org/2000/svg"
 width="63.000000pt" height="63.000000pt" viewBox="0 0 63.000000 63.000000"
 preserveAspectRatio="xMidYMid meet">

<g transform="translate(0.000000,63.000000) scale(0.100000,-0.100000)"
fill="#000000" stroke="none">
<path d="M245 553 c-73 -25 -145 -101 -169 -176 -21 -68 -17 -125 14 -190 19
-39 20 -43 3 -54 -24 -18 -4 -35 43 -37 37 -1 38 0 45 39 8 48 -6 69 -26 41
-14 -18 -16 -17 -35 25 -39 86 -20 198 46 262 42 42 82 60 149 66 44 4 60 10
60 21 0 22 -69 23 -130 3z"/>
<path d="M486 498 c-21 -66 -8 -111 20 -73 12 17 15 15 34 -26 39 -86 20 -198
-46 -262 -42 -42 -82 -60 -149 -66 -44 -4 -60 -10 -60 -21 0 -22 58 -24 123
-4 80 25 151 97 176 177 21 68 17 125 -14 189 -24 50 -25 58 -5 58 24 0 17 20
-11 30 -35 14 -64 12 -68 -2z"/>
<path d="M232 454 c-30 -21 -29 -71 3 -118 l24 -36 -24 -36 c-30 -44 -32 -94
-7 -117 25 -23 168 -24 200 -1 30 21 29 71 -3 118 l-24 36 24 36 c30 44 32 94
7 117 -25 23 -168 24 -200 1z m178 -58 c0 -25 -7 -40 -25 -54 -14 -11 -25 -29
-25 -39 0 -11 11 -30 25 -43 17 -16 25 -34 25 -57 l0 -33 -80 0 -80 0 0 34 c0
25 7 40 25 54 14 11 25 29 25 39 0 11 -11 30 -25 43 -17 16 -25 34 -25 57 l0
33 80 0 80 0 0 -34z"/>
</g>
</svg>
