<?xml version="1.0" standalone="no"?>
<!DOCTYPE svg PUBLIC "-//W3C//DTD SVG 20010904//EN"
 "http://www.w3.org/TR/2001/REC-SVG-20010904/DTD/svg10.dtd">
<svg version="1.0" xmlns="http://www.w3.org/2000/svg"
 width="63.000000pt" height="63.000000pt" viewBox="0 0 63.000000 63.000000"
 preserveAspectRatio="xMidYMid meet">

<g transform="translate(0.000000,63.000000) scale(0.100000,-0.100000)"
fill="#000000" stroke="none">
<path d="M226 550 c-95 -37 -166 -140 -166 -240 0 -101 72 -204 168 -240 66
-25 117 -25 185 0 94 35 167 139 167 240 0 101 -73 205 -167 240 -67 25 -123
25 -187 0z m172 -36 c151 -62 188 -250 71 -361 -112 -106 -284 -71 -350 72
-78 169 107 361 279 289z"/>
</g>
</svg>
