<?xml version="1.0" standalone="no"?>
<!DOCTYPE svg PUBLIC "-//W3C//DTD SVG 20010904//EN"
 "http://www.w3.org/TR/2001/REC-SVG-20010904/DTD/svg10.dtd">
<svg version="1.0" xmlns="http://www.w3.org/2000/svg"
 width="63.000000pt" height="52.000000pt" viewBox="0 0 63.000000 52.000000"
 preserveAspectRatio="xMidYMid meet">

<g transform="translate(0.000000,52.000000) scale(0.100000,-0.100000)"
fill="#000000" stroke="none">
<path d="M67 402 c-31 -32 -57 -62 -57 -68 0 -16 104 -114 122 -114 29 0 31
21 4 49 -14 15 -26 30 -26 34 0 3 64 8 143 9 139 3 142 4 145 26 3 22 3 22
-142 22 -80 0 -146 3 -146 7 0 4 11 19 25 33 26 27 26 60 1 60 -6 0 -37 -26
-69 -58z"/>
<path d="M454 299 c-3 -6 6 -23 20 -38 14 -15 26 -30 26 -34 0 -3 -64 -8 -142
-9 -140 -3 -143 -4 -146 -25 -3 -23 -3 -23 142 -23 80 0 146 -3 146 -7 0 -4
-11 -19 -25 -33 -26 -27 -26 -60 -1 -60 14 0 126 111 126 126 0 5 -24 33 -53
62 -51 51 -79 63 -93 41z"/>
</g>
</svg>
