<?xml version="1.0" standalone="no"?>
<!DOCTYPE svg PUBLIC "-//W3C//DTD SVG 20010904//EN"
 "http://www.w3.org/TR/2001/REC-SVG-20010904/DTD/svg10.dtd">
<svg version="1.0" xmlns="http://www.w3.org/2000/svg"
 width="469.000000pt" height="427.000000pt" viewBox="0 0 469.000000 427.000000"
 preserveAspectRatio="xMidYMid meet">

<g transform="translate(0.000000,427.000000) scale(0.100000,-0.100000)"
fill="#000000" stroke="none">
<path d="M2076 4050 c-238 -27 -427 -84 -651 -196 -383 -190 -669 -476 -859
-859 -99 -198 -142 -329 -183 -555 -24 -133 -24 -467 0 -600 41 -226 84 -357
183 -555 190 -383 476 -669 859 -859 198 -99 329 -142 555 -183 133 -24 467
-24 600 0 226 41 357 84 555 183 383 190 669 476 859 859 77 154 110 241 145
380 45 177 55 263 55 475 0 212 -10 298 -55 475 -35 139 -68 226 -145 380
-190 383 -476 669 -859 859 -198 99 -333 143 -550 181 -107 19 -398 27 -509
15z m458 -326 c676 -108 1222 -654 1330 -1330 21 -133 21 -375 0 -508 -108
-676 -654 -1222 -1330 -1330 -133 -21 -375 -21 -508 0 -676 108 -1222 654
-1330 1330 -21 133 -21 375 0 508 106 669 638 1208 1309 1327 133 23 391 25
529 3z"/>
<path d="M1549 2928 c-70 -40 -98 -131 -63 -201 9 -18 140 -157 292 -309 l277
-278 -282 -282 c-155 -156 -287 -296 -292 -311 -49 -129 77 -255 206 -206 15
5 155 137 311 292 l282 282 283 -282 c155 -155 295 -287 310 -292 129 -49 255
77 206 206 -5 15 -137 155 -292 311 l-282 282 282 283 c155 155 287 295 292
310 50 133 -88 263 -212 201 -18 -9 -157 -140 -309 -292 l-278 -277 -282 282
c-156 155 -296 287 -311 292 -44 17 -99 13 -138 -11z"/>
</g>
</svg>
